<?xml version="1.0" encoding="UTF-8"?>
<!-- Created with Inkscape (http://www.inkscape.org/) -->
<svg width="922.2" height="297.36" version="1.1" viewBox="0 0 244 78.677" xmlns="http://www.w3.org/2000/svg" xmlns:cc="http://creativecommons.org/ns#" xmlns:dc="http://purl.org/dc/elements/1.1/" xmlns:rdf="http://www.w3.org/1999/02/22-rdf-syntax-ns#">
 <metadata>
  <rdf:RDF>
   <cc:Work rdf:about="">
    <dc:format>image/svg+xml</dc:format>
    <dc:type rdf:resource="http://purl.org/dc/dcmitype/StillImage"/>
    <dc:title/>
   </cc:Work>
  </rdf:RDF>
 </metadata>
 <g transform="translate(0 -131.32)">
  <g transform="translate(-.46772 -1.2027)">
   <g transform="matrix(.72197 0 0 .81792 7.8886 -19.96)">
    <path d="m31.101 188.27c-0.05188 0-0.09354 0.0425-0.09354 0.0949v4.0337c0 0.0524 0.04166 0.0944 0.09354 0.0944h19.69c0.05188 0 0.09402-0.042 0.09402-0.0944v-4.0337c0-0.0524-0.04215-0.0949-0.09402-0.0949zm2.6565 4.3454c-0.10303 0-0.18561 0.0839-0.18561 0.18784v24.758l-26.061 57.616 66.594-0.0684-25.854-56.945c0.01267-0.0254 0.02143-0.0531 0.02143-0.0836v-25.278c0-0.10399-0.08307-0.18784-0.1861-0.18784z" fill="#fff" fill-rule="evenodd" stroke="#000" stroke-linecap="round" stroke-linejoin="round" stroke-width="2.0048"/>
   </g>
   <path d="m24.008 180.5s-0.11267 0.68717 1.0995 1.2427c2.5748 0.34197 23.902 0.0783 23.902 0.0783s1.3115-0.17753 1.5004-1.5004c0.18899-1.3229 9.7448 23.936 9.7448 23.936l-45.874 0.18958s9.2265-23.879 9.6274-23.946z" fill="#00e2eb" fill-opacity=".66995"/>
  </g>
  <g fill="#00e2eb" fill-opacity=".66995" fill-rule="evenodd">
   <circle cx="30.096" cy="179.43" r=".99219"/>
   <circle cx="39.924" cy="173.95" r=".70871"/>
   <circle cx="33.593" cy="166.3" r=".8032"/>
   <circle cx="35.105" cy="147.96" r=".70871"/>
   <circle cx="37.467" cy="158.17" r=".89769"/>
   <circle cx="38.695" cy="140.97" r="1.0867"/>
  </g>
 </g>
 <g transform="translate(0 -218.32)">
  <g transform="matrix(.26458 0 0 .26458 -26.649 176.87)" aria-label="Kelvin's Application Labotory">
   <g aria-label="Kelvin's Application Laboratory">
    <path d="m376.28 362.39h-5.3542l-12.271-13.812-3.0833 3.2917v10.521h-4.125v-31.021h4.125v16.188l15.062-16.188h5l-13.854 14.583z"/>
    <path d="m398.68 351.16h-17.146q0 2.1458 0.64583 3.75 0.64583 1.5833 1.7708 2.6042 1.0833 1 2.5625 1.5 1.5 0.5 3.2917 0.5 2.375 0 4.7708-0.9375 2.4167-0.95833 3.4375-1.875h0.20834v4.2708q-1.9792 0.83334-4.0417 1.3958t-4.3333 0.5625q-5.7917 0-9.0417-3.125-3.25-3.1458-3.25-8.9167 0-5.7083 3.1042-9.0625 3.125-3.3542 8.2083-3.3542 4.7083 0 7.25 2.75 2.5625 2.75 2.5625 7.8125zm-3.8125-3q-0.0208-3.0833-1.5625-4.7708-1.5208-1.6875-4.6458-1.6875-3.1458 0-5.0208 1.8542-1.8542 1.8542-2.1042 4.6042z"/>
    <path d="m408.57 362.39h-3.9167v-32.417h3.9167z"/>
    <path d="m436.49 339.12-9.4167 23.271h-3.9375l-9.3542-23.271h4.25l7.2083 18.521 7.1458-18.521z"/>
    <path d="m445.82 335.22h-4.4167v-4.0625h4.4167zm-0.25 27.167h-3.9167v-23.271h3.9167z"/>
    <path d="m472.82 362.39h-3.9167v-13.25q0-1.6042-0.1875-3-0.1875-1.4167-0.6875-2.2083-0.52084-0.875-1.5-1.2917-0.97917-0.4375-2.5417-0.4375-1.6042 0-3.3542 0.79166-1.75 0.79167-3.3542 2.0208v17.375h-3.9167v-23.271h3.9167v2.5833q1.8333-1.5208 3.7917-2.375 1.9583-0.85417 4.0208-0.85417 3.7708 0 5.75 2.2708 1.9792 2.2708 1.9792 6.5417z"/>
    <path d="m484.55 329.97-0.89583 12.062h-2.8333l-0.89583-12.062z"/>
    <path d="m508.49 355.68q0 3.1875-2.6458 5.2292-2.625 2.0417-7.1875 2.0417-2.5833 0-4.75-0.60417-2.1458-0.625-3.6042-1.3542v-4.3958h0.20833q1.8542 1.3958 4.125 2.2292 2.2708 0.8125 4.3542 0.8125 2.5833 0 4.0417-0.83333 1.4583-0.83334 1.4583-2.625 0-1.375-0.79167-2.0833-0.79166-0.70833-3.0417-1.2083-0.83334-0.1875-2.1875-0.4375-1.3333-0.25-2.4375-0.54167-3.0625-0.8125-4.3542-2.375-1.2708-1.5833-1.2708-3.875 0-1.4375 0.58333-2.7083 0.60417-1.2708 1.8125-2.2708 1.1667-0.97916 2.9583-1.5417 1.8125-0.58334 4.0417-0.58334 2.0833 0 4.2083 0.52084 2.1458 0.5 3.5625 1.2292v4.1875h-0.20833q-1.5-1.1042-3.6458-1.8542-2.1458-0.77084-4.2083-0.77084-2.1458 0-3.625 0.83334-1.4792 0.8125-1.4792 2.4375 0 1.4375 0.89583 2.1667 0.875 0.72917 2.8333 1.1875 1.0833 0.25 2.4167 0.5 1.3542 0.25 2.25 0.45834 2.7292 0.625 4.2083 2.1458 1.4792 1.5417 1.4792 4.0833z"/>
    <path d="m553.88 362.39h-4.3958l-3.0417-8.6458h-13.417l-3.0417 8.6458h-4.1875l11.292-31.021h5.5zm-8.7083-12.188-5.4375-15.229-5.4583 15.229z"/>
    <path d="m578.76 350.47q0 2.8333-0.8125 5.1875-0.8125 2.3333-2.2917 3.9583-1.375 1.5417-3.25 2.3958-1.8542 0.83333-3.9375 0.83333-1.8125 0-3.2917-0.39583-1.4583-0.39583-2.9792-1.2292v9.75h-3.9167v-31.854h3.9167v2.4375q1.5625-1.3125 3.5-2.1875 1.9583-0.89583 4.1667-0.89583 4.2083 0 6.5417 3.1875 2.3542 3.1667 2.3542 8.8125zm-4.0417 0.10417q0-4.2083-1.4375-6.2917t-4.4167-2.0833q-1.6875 0-3.3958 0.72916-1.7083 0.72917-3.2708 1.9167v13.188q1.6667 0.75 2.8542 1.0208 1.2083 0.27083 2.7292 0.27083 3.2708 0 5.1042-2.2083 1.8333-2.2083 1.8333-6.5417z"/>
    <path d="m605.34 350.47q0 2.8333-0.8125 5.1875-0.8125 2.3333-2.2917 3.9583-1.375 1.5417-3.25 2.3958-1.8542 0.83333-3.9375 0.83333-1.8125 0-3.2917-0.39583-1.4583-0.39583-2.9792-1.2292v9.75h-3.9167v-31.854h3.9167v2.4375q1.5625-1.3125 3.5-2.1875 1.9583-0.89583 4.1667-0.89583 4.2083 0 6.5417 3.1875 2.3542 3.1667 2.3542 8.8125zm-4.0417 0.10417q0-4.2083-1.4375-6.2917t-4.4167-2.0833q-1.6875 0-3.3958 0.72916-1.7083 0.72917-3.2708 1.9167v13.188q1.6667 0.75 2.8542 1.0208 1.2083 0.27083 2.7292 0.27083 3.2708 0 5.1042-2.2083 1.8333-2.2083 1.8333-6.5417z"/>
    <path d="m615.4 362.39h-3.9167v-32.417h3.9167z"/>
    <path d="m627.4 335.22h-4.4167v-4.0625h4.4167zm-0.25 27.167h-3.9167v-23.271h3.9167z"/>
    <path d="m652.15 360.93q-1.9583 0.9375-3.7292 1.4583-1.75 0.52083-3.7292 0.52083-2.5208 0-4.625-0.72916-2.1042-0.75-3.6042-2.25-1.5208-1.5-2.3542-3.7917t-0.83333-5.3542q0-5.7083 3.125-8.9583 3.1458-3.25 8.2917-3.25 2 0 3.9167 0.5625 1.9375 0.5625 3.5417 1.375v4.3542h-0.20834q-1.7917-1.3958-3.7083-2.1458-1.8958-0.75-3.7083-0.75-3.3333 0-5.2708 2.25-1.9167 2.2292-1.9167 6.5625 0 4.2083 1.875 6.4792 1.8958 2.25 5.3125 2.25 1.1875 0 2.4167-0.3125 1.2292-0.3125 2.2083-0.8125 0.85416-0.4375 1.6042-0.91667 0.75-0.5 1.1875-0.85416h0.20834z"/>
    <path d="m675.28 362.39h-3.8958v-2.4792q-0.52083 0.35417-1.4167 1-0.875 0.625-1.7083 1-0.97916 0.47917-2.25 0.79167-1.2708 0.33333-2.9792 0.33333-3.1458 0-5.3333-2.0833t-2.1875-5.3125q0-2.6458 1.125-4.2708 1.1458-1.6458 3.25-2.5833 2.125-0.9375 5.1042-1.2708 2.9792-0.33334 6.3958-0.5v-0.60417q0-1.3333-0.47916-2.2083-0.45834-0.875-1.3333-1.375-0.83333-0.47917-2-0.64584-1.1667-0.16666-2.4375-0.16666-1.5417 0-3.4375 0.41666-1.8958 0.39584-3.9167 1.1667h-0.20834v-3.9792q1.1458-0.3125 3.3125-0.6875 2.1667-0.375 4.2708-0.375 2.4583 0 4.2708 0.41667 1.8333 0.39583 3.1667 1.375 1.3125 0.95833 2 2.4792 0.6875 1.5208 0.6875 3.7708zm-3.8958-5.7292v-6.4792q-1.7917 0.10417-4.2292 0.3125-2.4167 0.20834-3.8333 0.60417-1.6875 0.47917-2.7292 1.5-1.0417 1-1.0417 2.7708 0 2 1.2083 3.0208 1.2083 1 3.6875 1 2.0625 0 3.7708-0.79167 1.7083-0.8125 3.1667-1.9375z"/>
    <path d="m694.95 362.18q-1.1042 0.29166-2.4167 0.47916-1.2917 0.1875-2.3125 0.1875-3.5625 0-5.4167-1.9167-1.8542-1.9167-1.8542-6.1458v-12.375h-2.6458v-3.2917h2.6458v-6.6875h3.9167v6.6875h8.0833v3.2917h-8.0833v10.604q0 1.8333 0.0833 2.875 0.0833 1.0208 0.58334 1.9167 0.45833 0.83333 1.25 1.2292 0.8125 0.375 2.4583 0.375 0.95833 0 2-0.27083 1.0417-0.29167 1.5-0.47917h0.20833z"/>
    <path d="m703.9 335.22h-4.4167v-4.0625h4.4167zm-0.25 27.167h-3.9167v-23.271h3.9167z"/>
    <path d="m731.28 350.76q0 5.6875-2.9167 8.9792-2.9167 3.2917-7.8125 3.2917-4.9375 0-7.8542-3.2917-2.8958-3.2917-2.8958-8.9792t2.8958-8.9792q2.9167-3.3125 7.8542-3.3125 4.8958 0 7.8125 3.3125 2.9167 3.2917 2.9167 8.9792zm-4.0417 0q0-4.5208-1.7708-6.7083-1.7708-2.2083-4.9167-2.2083-3.1875 0-4.9583 2.2083-1.75 2.1875-1.75 6.7083 0 4.375 1.7708 6.6458 1.7708 2.25 4.9375 2.25 3.125 0 4.8958-2.2292 1.7917-2.25 1.7917-6.6667z"/>
    <path d="m756.82 362.39h-3.9167v-13.25q0-1.6042-0.1875-3-0.1875-1.4167-0.6875-2.2083-0.52084-0.875-1.5-1.2917-0.97917-0.4375-2.5417-0.4375-1.6042 0-3.3542 0.79166-1.75 0.79167-3.3542 2.0208v17.375h-3.9167v-23.271h3.9167v2.5833q1.8333-1.5208 3.7917-2.375 1.9583-0.85417 4.0208-0.85417 3.7708 0 5.75 2.2708 1.9792 2.2708 1.9792 6.5417z"/>
    <path d="m799.3 362.39h-19.625v-31.021h4.125v27.354h15.5z"/>
    <path d="m821.2 362.39h-3.8958v-2.4792q-0.52083 0.35417-1.4167 1-0.875 0.625-1.7083 1-0.97917 0.47917-2.25 0.79167-1.2708 0.33333-2.9792 0.33333-3.1458 0-5.3333-2.0833t-2.1875-5.3125q0-2.6458 1.125-4.2708 1.1458-1.6458 3.25-2.5833 2.125-0.9375 5.1042-1.2708 2.9792-0.33334 6.3958-0.5v-0.60417q0-1.3333-0.47917-2.2083-0.45833-0.875-1.3333-1.375-0.83333-0.47917-2-0.64584-1.1667-0.16666-2.4375-0.16666-1.5417 0-3.4375 0.41666-1.8958 0.39584-3.9167 1.1667h-0.20833v-3.9792q1.1458-0.3125 3.3125-0.6875t4.2708-0.375q2.4583 0 4.2708 0.41667 1.8333 0.39583 3.1667 1.375 1.3125 0.95833 2 2.4792 0.6875 1.5208 0.6875 3.7708zm-3.8958-5.7292v-6.4792q-1.7917 0.10417-4.2292 0.3125-2.4167 0.20834-3.8333 0.60417-1.6875 0.47917-2.7292 1.5-1.0417 1-1.0417 2.7708 0 2 1.2083 3.0208 1.2083 1 3.6875 1 2.0625 0 3.7708-0.79167 1.7083-0.8125 3.1667-1.9375z"/>
    <path d="m849.26 350.58q0 2.9167-0.83333 5.25-0.8125 2.3333-2.2083 3.9167-1.4792 1.6458-3.25 2.4792-1.7708 0.8125-3.8958 0.8125-1.9792 0-3.4583-0.47916-1.4792-0.45834-2.9167-1.25l-0.25 1.0833h-3.6667v-32.417h3.9167v11.583q1.6458-1.3542 3.5-2.2083 1.8542-0.875 4.1667-0.875 4.125 0 6.5 3.1667 2.3958 3.1667 2.3958 8.9375zm-4.0417 0.10416q0-4.1667-1.375-6.3125-1.375-2.1667-4.4375-2.1667-1.7083 0-3.4583 0.75-1.75 0.72916-3.25 1.8958v13.333q1.6667 0.75 2.8542 1.0417 1.2083 0.29167 2.7292 0.29167 3.25 0 5.0833-2.125 1.8542-2.1458 1.8542-6.7083z"/>
    <path d="m875.2 350.76q0 5.6875-2.9167 8.9792-2.9167 3.2917-7.8125 3.2917-4.9375 0-7.8542-3.2917-2.8958-3.2917-2.8958-8.9792t2.8958-8.9792q2.9167-3.3125 7.8542-3.3125 4.8958 0 7.8125 3.3125 2.9167 3.2917 2.9167 8.9792zm-4.0417 0q0-4.5208-1.7708-6.7083-1.7708-2.2083-4.9167-2.2083-3.1875 0-4.9583 2.2083-1.75 2.1875-1.75 6.7083 0 4.375 1.7708 6.6458 1.7708 2.25 4.9375 2.25 3.125 0 4.8958-2.2292 1.7917-2.25 1.7917-6.6667z"/>
    <path d="m895.8 343.39h-0.20833q-0.875-0.20834-1.7083-0.29167-0.8125-0.10417-1.9375-0.10417-1.8125 0-3.5 0.8125-1.6875 0.79167-3.25 2.0625v16.521h-3.9167v-23.271h3.9167v3.4375q2.3333-1.875 4.1042-2.6458 1.7917-0.79167 3.6458-0.79167 1.0208 0 1.4792 0.0625 0.45833 0.0417 1.375 0.1875z"/>
    <path d="m916.86 362.39h-3.8958v-2.4792q-0.52084 0.35417-1.4167 1-0.875 0.625-1.7083 1-0.97917 0.47917-2.25 0.79167-1.2708 0.33333-2.9792 0.33333-3.1458 0-5.3333-2.0833-2.1875-2.0833-2.1875-5.3125 0-2.6458 1.125-4.2708 1.1458-1.6458 3.25-2.5833 2.125-0.9375 5.1042-1.2708 2.9792-0.33334 6.3958-0.5v-0.60417q0-1.3333-0.47917-2.2083-0.45833-0.875-1.3333-1.375-0.83334-0.47917-2-0.64584-1.1667-0.16666-2.4375-0.16666-1.5417 0-3.4375 0.41666-1.8958 0.39584-3.9167 1.1667h-0.20834v-3.9792q1.1458-0.3125 3.3125-0.6875 2.1667-0.375 4.2708-0.375 2.4583 0 4.2708 0.41667 1.8333 0.39583 3.1667 1.375 1.3125 0.95833 2 2.4792 0.6875 1.5208 0.6875 3.7708zm-3.8958-5.7292v-6.4792q-1.7917 0.10417-4.2292 0.3125-2.4167 0.20834-3.8333 0.60417-1.6875 0.47917-2.7292 1.5-1.0417 1-1.0417 2.7708 0 2 1.2083 3.0208 1.2083 1 3.6875 1 2.0625 0 3.7708-0.79167 1.7083-0.8125 3.1667-1.9375z"/>
    <path d="m936.53 362.18q-1.1042 0.29166-2.4167 0.47916-1.2917 0.1875-2.3125 0.1875-3.5625 0-5.4167-1.9167-1.8542-1.9167-1.8542-6.1458v-12.375h-2.6458v-3.2917h2.6458v-6.6875h3.9167v6.6875h8.0833v3.2917h-8.0833v10.604q0 1.8333 0.0833 2.875 0.0833 1.0208 0.58333 1.9167 0.45833 0.83333 1.25 1.2292 0.8125 0.375 2.4583 0.375 0.95834 0 2-0.27083 1.0417-0.29167 1.5-0.47917h0.20834z"/>
    <path d="m961.11 350.76q0 5.6875-2.9167 8.9792-2.9167 3.2917-7.8125 3.2917-4.9375 0-7.8542-3.2917-2.8958-3.2917-2.8958-8.9792t2.8958-8.9792q2.9167-3.3125 7.8542-3.3125 4.8958 0 7.8125 3.3125 2.9167 3.2917 2.9167 8.9792zm-4.0417 0q0-4.5208-1.7708-6.7083-1.7708-2.2083-4.9167-2.2083-3.1875 0-4.9583 2.2083-1.75 2.1875-1.75 6.7083 0 4.375 1.7708 6.6458 1.7708 2.25 4.9375 2.25 3.125 0 4.8958-2.2292 1.7917-2.25 1.7917-6.6667z"/>
    <path d="m981.72 343.39h-0.20834q-0.875-0.20834-1.7083-0.29167-0.8125-0.10417-1.9375-0.10417-1.8125 0-3.5 0.8125-1.6875 0.79167-3.25 2.0625v16.521h-3.9167v-23.271h3.9167v3.4375q2.3333-1.875 4.1042-2.6458 1.7917-0.79167 3.6458-0.79167 1.0208 0 1.4792 0.0625 0.45833 0.0417 1.375 0.1875z"/>
    <path d="m1005.6 339.12-13.583 31.854h-4.1875l4.3333-9.7083-9.2708-22.146h4.25l7.1458 17.25 7.2084-17.25z"/>
   </g>
  </g>
  <g transform="matrix(.72197 0 0 .81792 -3.4893 69.847)" fill="#fff" fill-opacity=".34975">
   <path d="m31.101 188.27c-0.05188 0-0.09354 0.0425-0.09354 0.0949v4.0337c0 0.0524 0.04166 0.0944 0.09354 0.0944h19.69c0.05188 0 0.09402-0.042 0.09402-0.0944v-4.0337c0-0.0524-0.04215-0.0949-0.09402-0.0949zm2.6565 4.3454c-0.10303 0-0.18561 0.0839-0.18561 0.18784v24.758l-26.061 57.616 66.594-0.0684-25.854-56.945c0.01267-0.0254 0.02143-0.0531 0.02143-0.0836v-25.278c0-0.10399-0.08307-0.18784-0.1861-0.18784z" fill="#fff" fill-opacity=".34975" fill-rule="evenodd" stroke="#000" stroke-linecap="round" stroke-linejoin="round" stroke-width="2.0048"/>
  </g>
  <path d="m12.63 270.31s-0.11267 0.68717 1.0995 1.2427c2.5748 0.34197 23.902 0.0783 23.902 0.0783s1.3115-0.17753 1.5004-1.5004c0.18899-1.3229 9.7448 23.936 9.7448 23.936l-45.874 0.18958s9.2265-23.879 9.6274-23.946z" fill="#f00" fill-opacity=".83251"/>
  <g fill="#f00" fill-opacity=".84236" fill-rule="evenodd">
   <circle cx="21.734" cy="268.08" r=".85045"/>
   <circle cx="23.765" cy="257.36" r="1.0867"/>
   <circle cx="30.38" cy="263.79" r=".8032"/>
   <circle cx="29.718" cy="271.25" r=".8032"/>
   <circle cx="25.561" cy="244.98" r=".70871"/>
   <circle cx="28.726" cy="234.73" r=".66146"/>
   <circle cx="23.765" cy="230.52" r=".99219"/>
  </g>
  <g transform="matrix(.26458 0 0 .26458 0 218.32)" aria-label="凯的应用程序实验室">
   <path d="m289.29 104.68v20.708q0 17.5-2.2604 26.031-2.3333 8.5312-9.1875 16.115-2.1146-2.2604-4.8125-4.1562 6.9271-6.3438 9.0417-14.948 1.8229-6.4167 1.8229-23.042v-25.958h22.823v57.75q0 2.3333 1.75 2.3333h0.875q2.0417 0 2.4062-4.1562 0.58333-5.3229 0.80208-12.542 2.4062 1.3854 5.0312 2.4062-0.4375 7.2187-1.0938 12.177-0.875 7.5104-6.4167 7.5104h-2.7708q-5.9792 0-5.9792-6.8542v-53.375zm-34.708 38.5v13.708q11.156-2.4062 21.948-5.1042-0.14584 3.1354-0.14584 5.9062-8.8958 1.6771-19.979 4.5208-3.4271 0.875-6.2708 2.4792l-3.2083-4.9583q2.2604-1.8229 2.2604-4.5938v-16.917h21.948v-8.6771h-24.5v-4.9583h30.042v20.635h-5.5417v-2.0417zm18.448-22.458v-2.3333h-25.74v-18.667h5.25v13.854h7.5104v-18.594h5.3958v18.594h7.5833v-13.708h5.25v20.854z" style=""/>
   <path d="m364.03 115.87q-2.9167 8.1667-9.3333 15.458l-4.375-5.25q9.9167-9.9167 12.542-28.292l6.125 2.0417q2.625 1.1667-0.29167 1.75-0.875 4.0833-2.3333 8.75h21l-1.4583 39.667q-0.29166 11.667-9.3333 11.667h-8.1667l-0.875-5.5417h7.5833q4.0833 0 4.375-5.25l1.4583-35zm3.5 27.125q-4.0833-5.8333-9.0417-10.5l4.9583-5.25q5.8333 5.25 9.3333 10.208zm-34.417-32.667q1.75-5.5417 3.2083-12.833l7 2.625q1.1667 1.1667-0.875 1.4583-0.875 3.7917-3.2083 8.75h10.792v48.125h-5.8333v-3.5h-12.833v5.8333h-5.8333v-50.458zm11.083 5.5417h-12.833v12.833h12.833zm0 18.375h-12.833v15.167h12.833z" style=""/>
   <path d="m427.54 97.39 5.3229-2.8437q3.1354 4.0104 5.9792 8.6771l-3.5365 2.0417h29.568v5.5417h-56.802v17.865q0 25.812-10.646 38.573-1.75-2.4062-4.2292-5.0312 8.75-9.7708 8.75-33.396v-23.552h30.844q-2.3698-4.0104-5.25-7.875zm-19.906 60.01h33.724q5.6875-14.547 12.068-39.812l6.3437 1.75q-6.8177 24.062-12.104 38.062h18.01v5.5417h-58.042zm3.9375-35.802 5.5417-1.8958q4.5208 13.271 8.75 29.75l-6.1979 1.8958q-3.3542-14.437-8.0938-29.75zm17.573-3.6458 5.6146-1.6042q3.7917 13.125 6.7083 29.385l-6.4167 1.6771q-2.1146-14.438-5.9062-29.458z" style=""/>
   <path d="m527.95 139.21h-18.958v22.167h-5.8333v-22.167h-17.5q-0.58333 15.167-9.0417 24.208l-4.6667-4.6667q7.875-8.75 7.875-20.417v-37.333h53.958v55.708q0 4.6667-4.6667 4.6667h-8.1667l-1.4583-6.4167h7.2917q1.1667 0 1.1667-1.1667zm-42.292-16.333v10.792h17.5v-10.792zm0-16.333v10.792h17.5v-10.792zm23.333 16.333v10.792h18.958v-10.792zm0-16.333v10.792h18.958v-10.792z" style=""/>
   <path d="m570.24 141.83-6.4167-7.2917v29.167h-5.8333v-27.708q-4.375 8.1667-9.3333 12.542l-3.7917-5.5417q9.9167-9.625 13.125-21.875h-10.792v-5.5417h10.792v-8.1667l-9.0417 1.4583-1.75-5.8333q14-2.3333 22.458-5.5417l4.0833 5.5417q0.29167 2.0417-1.75 0.875l-8.1667 2.3333v9.3333h10.5v5.5417h-10.5v5.8333q4.6667 3.2083 10.792 9.625zm25.958-6.7083v7.5833h12.25v5.5417h-12.25v7.875h16.333v5.5417h-41.417v-5.5417h19.25v-7.875h-13.125v-5.5417h13.125v-7.5833h-14.292v-5.5417h34.417v5.5417zm6.7083-28.583h-18.375v10.5h18.375zm0 18.667v-2.625h-18.375v2.9167h-5.8333v-24.5h30.042v24.208z" style=""/>
   <path d="m658.32 124.04 7-4.6667h-25.667v-4.6667h31.5l1.75-1.1667 4.0833 2.9167q1.1667 1.75-1.1667 1.4583-4.6667 3.5-13.125 8.4583 1.75 0.875 3.5 2.0417l-3.5 3.7917q-7.5833-4.6667-14.292-7.5833l2.9167-3.7917zm-31.792-19.833h25.375v-7.5833h6.4167q2.9167 0.58333 0.29167 2.3333v5.25h27.417v5.5417h-53.667v27.125q0 16.917-5.8333 25.083l-5.25-4.375q5.25-5.8333 5.25-20.708zm8.75 34.417v-5.5417h44.625l1.4583-1.4583 4.6667 4.6667q0.875 1.75-1.75 1.4583-6.4167 6.125-14.292 12.25l-3.7917-4.6667q5.25-3.2083 8.4583-6.7083h-11.958v19.25q0 5.25-4.6667 5.25h-7l-0.58334-5.5417h5.5417q0.875 0 0.875-0.875v-18.083z" style=""/>
   <path d="m692.88 161.92q26.906-5.0312 34.635-15.969h-33.469v-5.3958h36.167q2.4792-7.5833 2.2604-26.469h6.125q0 18.74-2.0417 26.469h27.635v5.3958h-29.677q-0.58333 1.1667-1.3854 2.4792 15.604 6.5625 30.552 13.562l-3.2083 5.5417q-15.604-7.9479-30.844-14.802-9.9167 9.6979-33.25 14.948-1.6771-3.2083-3.5-5.7604zm2.5521-56.219h33.396q-1.8229-3.2812-4.8854-7.6562l5.3229-2.9896q2.4062 3.2083 5.8333 8.4583l-4.0104 2.1875h31.208v13.052h-5.8333v-7.6562h-55.198v7.6562h-5.8333zm8.9688 19.688q8.3854 3.7917 15.75 7.9479l-3.1354 5.0312q-7.2917-4.4479-15.385-8.3125zm6.5625-11.156q8.4583 4.0833 15.385 8.2396l-3.2812 4.9583q-6.7812-4.375-14.948-8.8958z" style=""/>
   <path d="m777.47 109.28-1.6771 20.052h7.3646l1.8958-24.573h-16.552v-4.9583h22.094l-2.2604 29.531h4.5938q-0.51042 15.385-0.94792 25.302-0.21875 11.083-9.625 11.083-3.9375 0-9.2604-0.21875-0.36459-2.6979-0.94792-5.7604 5.25 0.65625 9.3333 0.65625 5.1042 0 5.3958-6.1979 0.4375-8.0208 0.72916-19.906h-17.5l2.3333-25.01zm16.042 49.219h26.323q5.25-12.979 9.3333-27.125l5.5417 1.75q-4.3021 13.052-9.1146 25.375h12.833v5.0312h-44.917zm26.469-62.781-1.3854 2.3333q8.8229 15.677 21.875 22.823-2.3333 2.9167-3.8646 5.1042-12.833-9.4792-20.927-22.823-7.4375 13.198-20.781 23.698-1.3125-1.8958-3.6458-4.5938 14.51-10.062 22.24-26.542zm-19.031 26.833h30.042v5.0312h-30.042zm8.8229 9.3333 5.1771-1.3854q3.0625 10.938 5.0312 19.104l-5.3229 1.5312q-2.1146-10.062-4.8854-19.25zm-12.542 3.2812 5.1042-1.6042q3.5729 10.354 5.9792 18.448l-5.3958 1.8229q-2.4062-9.3333-5.6875-18.667zm-30.552 10.062q8.4583-1.6771 18.594-4.0833-0.0729 2.9167 0.0729 5.1771-8.3125 1.75-17.573 4.3021z" style=""/>
   <path d="m903.03 136.87q-2.3333-2.0417-4.6667-3.5l-17.208 0.875v8.1667h23.042v5.5417h-23.042v8.4583h30.333v5.5417h-66.792v-5.5417h30.625v-8.4583h-22.75v-5.5417h22.75v-7.875l-19.25 0.58334q-1.1667 2.3333-2.0417 0.29166l-1.4583-6.125h10.792l6.4167-9.3333h-13.708v-4.6667h44.333v4.6667h-10.792q9.625 6.4167 17.792 12.542zm-10.208-8.1667q-3.5-2.625-7.875-5.25l3.7917-3.5h-11.958l-7 9.3333zm-11.667-32.083q2.9167 0.58333 0.29166 2.3333v4.9583h27.708v15.458h-5.8333v-9.9167h-50.167v9.9167h-5.8333v-15.458h27.417v-7.2917z" style=""/>
  </g>
 </g>
</svg>
