<?xml version="1.0" encoding="UTF-8"?>
<!-- Created with Inkscape (http://www.inkscape.org/) -->
<svg width="297" height="297" version="1.1" viewBox="0 0 78.581 78.581" xmlns="http://www.w3.org/2000/svg" xmlns:cc="http://creativecommons.org/ns#" xmlns:dc="http://purl.org/dc/elements/1.1/" xmlns:rdf="http://www.w3.org/1999/02/22-rdf-syntax-ns#">
 <metadata>
  <rdf:RDF>
   <cc:Work rdf:about="">
    <dc:format>image/svg+xml</dc:format>
    <dc:type rdf:resource="http://purl.org/dc/dcmitype/StillImage"/>
    <dc:title/>
   </cc:Work>
  </rdf:RDF>
 </metadata>
 <g transform="translate(0 -218.42)" display="none">
  <g transform="matrix(.72197 0 0 .81792 -3.4893 69.847)" fill="#fff" fill-opacity=".34975">
   <path d="m31.101 188.27c-0.05188 0-0.09354 0.0425-0.09354 0.0949v4.0337c0 0.0524 0.04166 0.0944 0.09354 0.0944h19.69c0.05188 0 0.09402-0.042 0.09402-0.0944v-4.0337c0-0.0524-0.04215-0.0949-0.09402-0.0949zm2.6565 4.3454c-0.10303 0-0.18561 0.0839-0.18561 0.18784v24.758l-26.061 57.616 66.594-0.0684-25.854-56.945c0.01267-0.0254 0.02143-0.0531 0.02143-0.0836v-25.278c0-0.10399-0.08307-0.18784-0.1861-0.18784z" fill="#fff" fill-opacity=".34975" fill-rule="evenodd" stroke="#000" stroke-linecap="round" stroke-linejoin="round" stroke-width="2.0048"/>
  </g>
  <path d="m12.63 270.31s-0.11267 0.68717 1.0995 1.2427c2.5748 0.34197 23.902 0.0783 23.902 0.0783s1.3115-0.17753 1.5004-1.5004c0.18899-1.3229 9.7448 23.936 9.7448 23.936l-45.874 0.18958s9.2265-23.879 9.6274-23.946z" fill="#f00" fill-opacity=".83251"/>
  <g fill="#f00" fill-opacity=".84236" fill-rule="evenodd">
   <circle cx="21.734" cy="268.08" r=".85045"/>
   <circle cx="23.765" cy="257.36" r="1.0867"/>
   <circle cx="30.38" cy="263.79" r=".8032"/>
   <circle cx="29.718" cy="271.25" r=".8032"/>
   <circle cx="25.561" cy="244.98" r=".70871"/>
   <circle cx="28.726" cy="234.73" r=".66146"/>
   <circle cx="23.765" cy="230.52" r=".99219"/>
  </g>
  <rect x=".18899" y="218.57" width="78.43" height="78.241" ry="0" display="inline" fill="#a4ffff"/>
 </g>
 <g transform="matrix(1.0035 0 0 1.0035 7.5543 -219.18)" fill="#fff">
  <g transform="matrix(.72197 0 0 .81792 -3.4893 69.847)">
   <path d="m31.101 188.27c-0.05188 0-0.09354 0.0425-0.09354 0.0949v4.0337c0 0.0524 0.04166 0.0944 0.09354 0.0944h19.69c0.05188 0 0.09402-0.042 0.09402-0.0944v-4.0337c0-0.0524-0.04215-0.0949-0.09402-0.0949zm2.6565 4.3454c-0.10303 0-0.18561 0.0839-0.18561 0.18784v24.758l-26.061 57.616 66.594-0.0684-25.854-56.945c0.01267-0.0254 0.02143-0.0531 0.02143-0.0836v-25.278c0-0.10399-0.08307-0.18784-0.1861-0.18784z" fill="#fff" fill-rule="evenodd"/>
  </g>
  <path d="m12.63 270.31s-0.11267 0.68717 1.0995 1.2427c2.5748 0.34197 23.902 0.0783 23.902 0.0783s1.3115-0.17753 1.5004-1.5004c0.18899-1.3229 9.7448 23.936 9.7448 23.936l-45.874 0.18958s9.2265-23.879 9.6274-23.946z"/>
 </g>
 <g transform="translate(0 -131.42)">
  <g transform="matrix(1.0035 0 0 1.0035 6.8648 -1.5285)">
   <g transform="matrix(.72197 0 0 .81792 7.8886 -19.96)">
    <path d="m31.101 188.27c-0.05188 0-0.09354 0.0425-0.09354 0.0949v4.0337c0 0.0524 0.04166 0.0944 0.09354 0.0944h19.69c0.05188 0 0.09402-0.042 0.09402-0.0944v-4.0337c0-0.0524-0.04215-0.0949-0.09402-0.0949zm2.6565 4.3454c-0.10303 0-0.18561 0.0839-0.18561 0.18784v24.758l-26.061 57.616 66.594-0.0684-25.854-56.945c0.01267-0.0254 0.02143-0.0531 0.02143-0.0836v-25.278c0-0.10399-0.08307-0.18784-0.1861-0.18784z" fill="#fff" fill-rule="evenodd" stroke="#000" stroke-linecap="round" stroke-linejoin="round" stroke-width="2.0048"/>
   </g>
   <path d="m24.008 180.5s-0.11267 0.68717 1.0995 1.2427c2.5748 0.34197 23.902 0.0783 23.902 0.0783s1.3115-0.17753 1.5004-1.5004c0.18899-1.3229 9.7448 23.936 9.7448 23.936l-45.874 0.18958s9.2265-23.879 9.6274-23.946z" fill="#00e2eb" fill-opacity=".66995"/>
  </g>
  <g fill="#00e2eb" fill-opacity=".66995" fill-rule="evenodd">
   <circle cx="37.536" cy="179.74" r=".99565"/>
   <circle cx="47.397" cy="174.24" r=".71118"/>
   <circle cx="41.044" cy="166.56" r=".806"/>
   <circle cx="42.561" cy="148.16" r=".71118"/>
   <circle cx="44.932" cy="158.4" r=".90083"/>
   <circle cx="46.165" cy="141.14" r="1.0905"/>
  </g>
  <g transform="matrix(1.0035 0 0 1.0035 7.5543 -87.76)">
   <g transform="matrix(.72197 0 0 .81792 -3.4893 69.847)" fill="#fff" fill-opacity=".34975">
    <path d="m31.101 188.27c-0.05188 0-0.09354 0.0425-0.09354 0.0949v4.0337c0 0.0524 0.04166 0.0944 0.09354 0.0944h19.69c0.05188 0 0.09402-0.042 0.09402-0.0944v-4.0337c0-0.0524-0.04215-0.0949-0.09402-0.0949zm2.6565 4.3454c-0.10303 0-0.18561 0.0839-0.18561 0.18784v24.758l-26.061 57.616 66.594-0.0684-25.854-56.945c0.01267-0.0254 0.02143-0.0531 0.02143-0.0836v-25.278c0-0.10399-0.08307-0.18784-0.1861-0.18784z" fill="#fff" fill-opacity=".34975" fill-rule="evenodd" stroke="#000" stroke-linecap="round" stroke-linejoin="round" stroke-width="2.0048"/>
   </g>
   <path d="m12.63 270.31s-0.11267 0.68717 1.0995 1.2427c2.5748 0.34197 23.902 0.0783 23.902 0.0783s1.3115-0.17753 1.5004-1.5004c0.18899-1.3229 9.7448 23.936 9.7448 23.936l-45.874 0.18958s9.2265-23.879 9.6274-23.946z" fill="#f00" fill-opacity=".83251"/>
  </g>
  <g fill="#f00" fill-opacity=".84236" fill-rule="evenodd">
   <circle cx="29.364" cy="181.26" r=".85341"/>
   <circle cx="31.403" cy="170.5" r="1.0905"/>
   <circle cx="38.04" cy="176.95" r=".806"/>
   <circle cx="37.376" cy="184.44" r=".806"/>
   <circle cx="33.204" cy="158.08" r=".71118"/>
   <circle cx="36.381" cy="147.79" r=".66377"/>
   <circle cx="31.403" cy="143.57" r=".99565"/>
  </g>
 </g>
</svg>
