<?xml version="1.0" ?><svg enable-background="new 0 0 196.3772 220.3964" id="bitbucket" version="1.1" viewBox="0 0 196.3772 220.3964" xml:space="preserve" xmlns="http://www.w3.org/2000/svg" xmlns:xlink="http://www.w3.org/1999/xlink"><g><path d="M98.3848,87.7772h-0.0036c-0.01,0-0.0215,0-0.0332,0c-5.1816,0-10.0196,1.9824-13.6232,5.5859   c-3.506,3.5061-5.4336,8.1585-5.4256,13.0997c0.0116,10.246,8.5136,18.6096,18.9508,18.6408c0.0177,0,0.0332,0,0.0508,0   c5.1232,0,9.926-1.9748,13.5276-5.5664c3.5233-3.512,5.4648-8.1604,5.4668-13.0861   C117.3028,96.1796,108.8184,87.8028,98.3848,87.7772z M106.18,113.8711c-2.092,2.0861-4.8888,3.2325-7.8772,3.2325   c-0.0096,0-0.0212,0-0.0311,0c-6.0429-0.0196-10.9649-4.7952-10.9725-10.6504c-0.004-2.8008,1.0916-5.4416,3.082-7.4336   c2.0936-2.092,4.9216-3.2424,7.9688-3.2424c0.0036,0,0.0097,0,0.0156,0c6.0312,0.0136,10.9336,4.8008,10.9296,10.6699   C109.2932,109.2344,108.1877,111.8711,106.18,113.8711z"/><path d="M167.344,149.6896l-0.0116-0.002c-2.0548-0.3596-4.0332,0.1248-6.0256,1.4764l-0.6991,0.4768   c-1.0957,0.748-2.1897,1.498-3.3225,2.1756c-6.654,3.9667-14.0388,7.1152-22.578,9.6232   c-9.174,2.7028-18.9395,4.3376-29.0235,4.8632c-5.4473,0.2832-10.8905,0.2596-16.1757-0.0784   c-5.1483-0.324-10.2832-0.9508-15.2636-1.8668c-8.758-1.6096-17.0196-4.0724-24.5607-7.3225   c-5.8865-2.5331-10.4509-5.0371-14.3513-7.8711c-0.7092-0.5176-1.5432-0.9396-2.4064-1.2169   c-2.0448-0.668-4.2364-0.4491-6.0096,0.588c-1.7696,1.0313-2.9767,2.7325-3.4024,4.8009c-0.2308,1.1328-0.248,2.2888-0.0508,3.332   c1.0196,5.4728,2.0685,10.9452,3.1348,16.41c0.824,4.2228,1.662,8.4436,2.5,12.6624l0.912,4.6032   c0.4764,2.3948,1.416,4.6504,2.7892,6.7052c1.3688,2.0488,3.0876,3.916,5.2516,5.7072c3.1172,2.582,6.844,4.8164,11.3908,6.832   c6.7284,2.986,14.3612,5.1932,23.3341,6.748c5.992,1.0388,12.1835,1.6911,18.0391,1.8964l13.916,0.164l0.8144-0.1268   c4.8828-0.1992,9.8808-0.666,14.8516-1.3868c6.6132-0.9608,12.572-2.2928,18.2224-4.0724   c5.7972-1.826,10.6816-3.9528,14.9316-6.5056c3.1272-1.8772,5.6544-3.8577,7.7228-6.0488c2.9064-3.0724,4.66-6.3184,5.3596-9.916   l3.2888-16.594c1.0956-5.6016,2.174-11.2052,3.2268-16.8124c0.1852-0.9884,0.2109-2.0705,0.078-3.1212   C172.836,152.6564,170.5277,150.252,167.344,149.6896z M162.0704,174.2108l-3.2888,16.5996   c-0.4084,2.096-1.4632,3.9844-3.3224,5.9512c-1.5624,1.6564-3.5352,3.1876-6.0256,4.6836   c-3.7048,2.2248-8.0292,4.1016-13.2168,5.7364c-5.236,1.6484-10.7868,2.8848-16.9684,3.7832   c-4.7012,0.6836-9.42,1.1252-14.0804,1.3143c-0.2792,0.0157-0.5603,0.0549-0.8672,0.1173H92.4164   c-0.3127-0.0624-0.6232-0.1056-0.924-0.1152c-5.8652-0.2344-11.7032-0.8476-17.3496-1.828   c-8.3184-1.4416-15.336-3.4612-21.4572-6.1781c-3.8708-1.7167-6.988-3.5739-9.5332-5.6815   c-1.5584-1.2888-2.7692-2.5956-3.7028-3.99c-0.7972-1.1956-1.3184-2.4436-1.592-3.8184l-0.912-4.6016   c-0.8379-4.2108-1.6739-8.424-2.496-12.6368c-0.9768-5.004-1.9376-10.0117-2.8556-15.2244c4.1737,2.912,8.9532,5.49,14.9236,8.0604   c8.092,3.4864,16.9336,6.1248,26.2816,7.8416c5.2908,0.9728,10.744,1.6408,16.2068,1.9844c5.588,0.3536,11.338,0.3848,17.092,0.082   c10.7088-0.5564,21.0956-2.2988,30.8672-5.1757c9.1912-2.7011,17.1776-6.1111,24.4236-10.4315   c1.2736-0.7616,2.502-1.5976,3.7304-2.4356l0.0216-0.0156C164.1368,163.5584,163.1117,168.8868,162.0704,174.2108z"/><path d="M155.8168,23.1796c-2.2464-1.1892-4.5588-1.9512-6.7228-2.5956c-4.2228-1.258-8.918-2.2616-14.7772-3.16   c-5.924-0.9084-12.1428-1.5508-19.004-1.9632c-3.1604-0.1912-6.3244-0.2968-9.6992-0.408   c-9.0568-0.2892-18.5276-0.086-28.1604,0.6052c-6.246,0.4531-11.904,1.1036-17.2948,1.9904   c-5.5488,0.914-9.7696,1.8752-13.6816,3.1192c-2.5604,0.8104-4.5936,1.6404-6.4064,2.6172   c-1.0916,0.5916-2.5076,1.4376-3.7712,2.75c-3.1096,3.2323-3.094,7.3556,0.0272,10.49c0.9316,0.9436,1.9512,1.7248,3.0333,2.3244   c1.588,0.8788,3.0427,1.5704,4.4411,2.1132c5.0392,1.9647,10.3264,3.0508,14.834,3.8536   c7.5744,1.3496,15.7344,2.2304,24.9476,2.6951c3.4744,0.1741,6.9548,0.2657,10.408,0.3537L98.756,48.09l4.3788-0.1292   c2.9788-0.084,5.932-0.168,8.8828-0.2772c5.9064-0.2188,12.1116-0.7325,18.4456-1.5312c5.9296-0.748,10.82-1.6253,15.3904-2.7656   c2.6584-0.6624,6.1484-1.6272,9.5432-3.2344c1.1248-0.5293,2.7928-1.3868,4.2949-2.7112c2.4939-2.1992,2.9843-4.4901,2.9571-6.0232   c-0.0276-1.5236-0.592-3.7756-3.1192-5.8456C158.2717,24.5351,156.8888,23.752,155.8168,23.1796z M151.9828,32.918   c-2.766,1.3084-5.762,2.1328-8.0628,2.7068c-4.2556,1.0608-8.8496,1.8828-14.4568,2.59   c-6.1016,0.7696-12.0684,1.2656-17.7404,1.4728c-2.9296,0.1092-5.8612,0.1932-8.8184,0.2772l-4.1484,0.1288l-4.5584-0.1248   c-3.3888-0.088-6.8048-0.176-10.2148-0.3457c-8.8732-0.4491-16.7052-1.2931-23.9456-2.5823   c-4.332-0.7732-8.9472-1.7224-13.336-3.4332c-1.0644-0.4144-2.2012-0.9572-3.4668-1.6565c-0.2596-0.1443-0.5232-0.328-0.82-0.5899   c0.3573-0.2948,0.826-0.5956,1.4568-0.9372c1.3536-0.7289,2.9492-1.3752,5.0236-2.0316c3.5352-1.1228,7.41-2.0016,12.5644-2.8496   c5.1485-0.8477,10.5685-1.4704,16.5704-1.904c9.3572-0.678,18.5488-0.8732,27.5332-0.584   c3.0896,0.1032,6.1796,0.2048,9.2676,0.3904c6.6173,0.3984,12.5936,1.0156,18.2733,1.8848c5.4883,0.842,9.844,1.7716,13.7051,2.922   c1.7696,0.5271,3.6309,1.1328,5.254,1.992c0.662,0.3536,1.488,0.8164,2.1716,1.338   C153.6877,32.0292,152.9844,32.4452,151.9828,32.918z"/><path d="M98.3224,73.1951c-0.002,0-0.0056,0-0.0056,0c-9.1996,0-17.8088,3.5489-24.2424,9.9925   c-6.2576,6.2675-9.6972,14.5544-9.6856,23.334c0.0236,18.2988,15.254,33.1716,33.9612,33.1695c0.0116,0,0.0252,0,0.0368,0   c9.0312-0.0095,17.5312-3.4723,23.9396-9.7499c6.4316-6.2988,9.9648-14.66,9.9512-23.5388   C132.2484,88.09,117.0176,73.1951,98.3224,73.1951z M116.7268,124.2284c-4.9044,4.8048-11.42,7.4552-18.3476,7.4627   c-0.012,0-0.0195,0-0.0292,0c-14.2992,0-25.9436-11.2907-25.9612-25.1815c-0.0096-6.6404,2.5996-12.916,7.3476-17.6696   c4.922-4.93,11.5196-7.6449,18.5784-7.6449c0.0036,0,0.0036,0,0.0076,0c14.2893,0,25.9336,11.3125,25.9552,25.2189   C124.2872,113.1212,121.6077,119.4471,116.7268,124.2284z"/><path d="M196.1312,31.3924c-0.1172-0.498-0.2424-0.992-0.4004-1.4608c-0.8968-2.6836-2.506-5.16-4.918-7.574   c-2.5548-2.5548-5.672-4.7852-9.8164-7.0196c-4.2912-2.3109-8.9864-4.26-14.7776-6.1368   c-6.9236-2.2424-14.3084-4.0332-21.9471-5.3224c-4.5273-0.7656-8.9865-1.4237-13.252-1.9548   c-3.6505-0.4572-7.4805-0.8184-11.3809-1.0744c-3.4784-0.2284-6.9628-0.3828-10.4452-0.5392l-4.4844-0.2012L103.9904,0   L92.6312,0.006l-7.5804,0.408c-3.1972,0.17-6.3964,0.338-9.5896,0.5528c-4.836,0.3203-10.0116,0.8888-15.8264,1.7344   C46.6524,4.59,36.1524,7.076,26.59,10.5292c-5.74,2.0744-10.324,4.252-14.4236,6.8536c-2.9124,1.8476-5.2444,3.752-7.1292,5.8224   c-2.488,2.736-3.998,5.5272-4.6112,8.5368L0,32.7148v2.6523l1.6037,9.5569C2.42,50.1348,3.2364,55.3456,4.092,60.5468   c1.0584,6.4608,2.1757,12.914,3.2912,19.3672l8.5212,48.5664c0.3476,2.0332,1.1368,3.9904,2.344,5.8144   c1.4568,2.2092,3.3356,4.2148,5.916,6.3128c3.5332,2.8668,7.5876,5.3336,12.7596,7.7616c6.1952,2.908,12.994,5.2576,20.7852,7.1816   c6.162,1.5232,12.5196,2.6544,19.4316,3.4552c6.7892,0.7928,13.8692,1.1912,21.1232,1.1912c2.1268,0,4.2677-0.0352,6.4216-0.1036   c11.9592-0.3828,22.9084-1.8084,33.4728-4.3572c9.2013-2.2188,17.082-5.0352,24.0956-8.6096   c4.1272-2.1052,7.5628-4.3104,10.506-6.744c1.7872-1.4804,3.2732-2.9728,4.5392-4.5604c1.8768-2.3536,3.084-5.0684,3.5856-8.0724   c0.668-4.002,1.3829-7.994,2.096-11.9864l6.66-37.99c0.8712-5.0452,1.7384-10.096,2.588-15.1428   c0.7888-4.6972,1.58-9.3964,2.338-14.0957c0.3964-2.4395,0.7656-4.8827,1.1344-7.328l0.4084-2.7091l0.2676-5.6232L196.1312,31.3924   z M187.7892,40.0156c-0.3632,2.414-0.7264,4.828-1.1192,7.242c-0.7556,4.6836-1.5428,9.3672-2.332,14.0472   c-0.8456,5.0368-1.7128,10.076-2.58,15.1072l-6.6524,37.9436c-0.7188,4.0212-1.4376,8.0448-2.1112,12.074   c-0.2792,1.668-0.916,3.1076-1.9512,4.4044c-0.92,1.1544-2.0256,2.2616-3.3828,3.3828c-2.4864,2.0568-5.4436,3.9472-9.0412,5.7832   c-6.4452,3.2852-13.752,5.8888-22.336,7.9588c-10.0272,2.42-20.4472,3.7736-31.8532,4.1388   c-9.1096,0.2932-17.9748-0.0585-26.3652-1.0372c-6.5764-0.7636-12.6056-1.834-18.4376-3.2752   c-7.2736-1.7968-13.588-3.9748-19.3028-6.6584c-4.5704-2.1444-8.1036-4.2832-11.1152-6.7264   c-1.926-1.5684-3.2872-3.002-4.2872-4.5156c-0.5996-0.9064-0.9708-1.8068-1.1308-2.752l-8.5252-48.582   c-1.1116-6.4296-2.2248-12.8597-3.2796-19.2988c-0.8516-5.1836-1.666-10.3772-2.4784-15.5684l-1.2596-8.002   C8.1976,35.3631,8.1157,35.0488,8,34.6932v-0.3008c0.09-0.248,0.174-0.5368,0.2268-0.8573   c0.2832-1.6367,1.1504-3.2111,2.7304-4.9491c1.414-1.5528,3.16-2.9669,5.494-4.4472c3.596-2.2812,7.682-4.2148,12.8556-6.086   c9.0432-3.2636,19.0449-5.6252,31.4804-7.4337c5.6056-0.8163,10.58-1.3631,15.2072-1.672c3.158-0.2107,6.3184-0.3767,9.4784-0.5427   l4.2949-0.2304L103.3868,8c0.258,0.0408,0.5196,0.074,0.7932,0.09l4.656,0.2128c3.428,0.1523,6.8557,0.3048,10.2797,0.5312   c3.744,0.244,7.416,0.59,10.9139,1.0272c4.1524,0.5176,8.496,1.1584,12.9101,1.9044c7.256,1.2264,14.26,2.924,20.8123,5.0448   c5.3224,1.7247,9.596,3.4964,13.4492,5.5704c3.4376,1.8536,5.9652,3.6428,7.9512,5.6328h0.002   c1.5373,1.5372,2.4864,2.9532,2.996,4.4728c0.0824,0.246,0.1368,0.502,0.1976,0.754l0.0292,2.8336L187.7892,40.0156z"/></g></svg>